# Blender v2.65 (sub 0) OBJ File: ''
# www.blender.org
mtllib health.mtl
v 0.066124 0.067428 -0.211704
v -0.067405 0.067428 -0.211704
v -0.067405 0.067428 0.208296
v 0.066124 0.067428 0.208296
v 0.066124 -0.066101 -0.211704
v -0.067405 -0.066101 -0.211704
v -0.067405 -0.066101 0.208296
v 0.066124 -0.066101 0.208296

v 0.066765 -0.210000 -0.066765
v -0.066765 -0.210000 -0.066765
v -0.066765 0.210000 -0.066765
v 0.066765 0.210000 -0.066765
v 0.066765 -0.210000 0.066765
v -0.066765 -0.210000 0.066765
v -0.066765 0.210000 0.066765
v 0.066765 0.210000 0.066765

vn -0.000000 1.000000 -0.000001
vn 0.000000 -1.000000 0.000001
vn -0.000001 -0.000001 -1.000000
vn -1.000000 0.000000 0.000000
vn 0.000001 0.000001 1.000000
vn 1.000000 -0.000000 -0.000000

vn 0.000000 -0.000000 -1.000000
vn -0.000000 0.000000 1.000000
vn -0.000001 -1.000000 0.000000
vn 0.000001 1.000000 -0.000000

vt 0.5 0.5

usemtl Material
g plus

f 1/1/1 2/1/1 3/1/1
f 1/1/1 3/1/1 4/1/1
f 5/1/2 8/1/2 7/1/2
f 5/1/2 7/1/2 6/1/2
f 1/1/3 5/1/3 6/1/3
f 1/1/3 6/1/3 2/1/3
f 2/1/4 6/1/4 7/1/4
f 2/1/4 7/1/4 3/1/4
f 3/1/5 7/1/5 8/1/5
f 3/1/5 8/1/5 4/1/5
f 5/1/6 1/1/6 4/1/6
f 5/1/6 4/1/6 8/1/6

f 9/1/7 10/1/7 11/1/7
f 9/1/7 11/1/7 12/1/7
f 13/1/8 16/1/8 15/1/8
f 13/1/8 15/1/8 14/1/8
f 9/1/9 13/1/9 14/1/9
f 9/1/9 14/1/9 10/1/9
f 10/1/4 14/1/4 15/1/4
f 10/1/4 15/1/4 11/1/4
f 11/1/10 15/1/10 16/1/10
f 11/1/10 16/1/10 12/1/10
f 13/1/6 9/1/6 12/1/6
f 13/1/6 12/1/6 16/1/6