# 3ds Max Wavefront OBJ Exporter v0.97b - (c)2007 guruware
# File Created: 31.05.2013 12:29:47

mtllib missile.mtl

#
# object rocket
#

v  0.0092 -0.2970 0.0000
v  0.0029 -0.2970 -0.0088
v  0.0072 -0.2520 -0.0220
v  0.0232 -0.2520 0.0000
v  0.0072 -0.2520 0.0220
v  0.0029 -0.2970 0.0088
v  -0.0187 -0.2520 0.0136
v  -0.0075 -0.2970 0.0054
v  -0.0075 -0.2970 -0.0054
v  -0.0187 -0.2520 -0.0136
v  0.0072 -0.1845 -0.0220
v  0.0232 -0.1845 0.0000
v  0.0072 -0.1845 0.0220
v  -0.0187 -0.1845 0.0136
v  -0.0187 -0.1845 -0.0136
v  0.0097 -0.1530 -0.0300
v  0.0315 -0.1530 0.0000
v  0.0097 -0.1530 0.0300
v  -0.0255 -0.1530 0.0185
v  -0.0255 -0.1530 -0.0185
v  0.0176 -0.0315 -0.0303
v  0.0049 -0.0315 -0.0176
v  0.0001 0.0225 -0.0224
v  0.0224 0.0225 -0.0447
v  0.0303 -0.0315 -0.0176
v  0.0176 -0.0315 -0.0049
v  0.0447 0.0225 -0.0224
v  0.0224 0.0225 -0.0001
v  0.0303 -0.0315 0.0176
v  0.0176 -0.0315 0.0049
v  0.0224 0.0225 0.0001
v  0.0447 0.0225 0.0224
v  0.0176 -0.0315 0.0303
v  0.0049 -0.0315 0.0176
v  0.0224 0.0225 0.0447
v  0.0001 0.0225 0.0224
v  -0.0176 -0.0315 0.0303
v  -0.0049 -0.0315 0.0176
v  -0.0001 0.0225 0.0224
v  -0.0224 0.0225 0.0447
v  -0.0303 -0.0315 0.0176
v  -0.0176 -0.0315 0.0049
v  -0.0447 0.0225 0.0224
v  -0.0224 0.0225 0.0001
v  -0.0303 -0.0315 -0.0176
v  -0.0176 -0.0315 -0.0049
v  -0.0224 0.0225 -0.0001
v  -0.0447 0.0225 -0.0224
v  -0.0176 -0.0315 -0.0303
v  -0.0049 -0.0315 -0.0176
v  -0.0224 0.0225 -0.0447
v  -0.0001 0.0225 -0.0224
v  -0.0255 0.0135 -0.0185
v  -0.0255 0.0135 0.0185
v  0.0097 0.0135 0.0300
v  0.0097 0.0135 -0.0300
v  0.0315 0.0135 0.0000
# 57 vertices

vn 0.7849 -0.2425 -0.5702
vn 0.9554 -0.2952 0.0000
vn 0.7849 -0.2425 0.5702
vn 0.3559 -0.1415 0.9237
vn -0.2998 -0.2425 0.9227
vn -0.9701 -0.2425 0.0000
vn -0.2998 -0.2425 -0.9227
vn 0.8090 0.0000 -0.5878
vn 0.8090 0.0000 0.5878
vn -0.3090 0.0000 0.9511
vn -1.0000 0.0000 0.0000
vn -0.3090 0.0000 -0.9511
vn -0.8159 -0.1357 -0.5620
vn 0.7911 -0.2095 -0.5747
vn 0.9667 -0.2560 0.0000
vn 0.7911 -0.2095 0.5747
vn 0.3486 -0.1232 0.9291
vn -0.3022 -0.2095 0.9299
vn -0.9778 -0.2095 0.0000
vn -0.3022 -0.2095 -0.9299
vn 0.0000 -1.0000 0.0000
vn -0.7016 -0.1240 -0.7016
vn 0.6860 -0.2425 -0.6860
vn 0.9654 -0.2588 -0.0317
vn 0.9666 -0.2524 0.0447
vn 0.0000 1.0000 0.0000
vn 0.7016 -0.1240 0.7016
vn 0.9666 -0.2524 -0.0447
vn 0.7016 -0.1240 -0.7016
vn 0.8768 0.4800 0.0288
vn 0.5344 0.6549 0.5344
vn 0.6860 -0.2425 0.6860
vn -0.7016 -0.1240 0.7016
vn -0.6860 -0.2425 0.6860
vn -0.6860 -0.2425 -0.6860
# 35 vertex normals

vt 0.7539 0.2539 0.0000
vt 0.7539 0.0039 0.0000
vt 0.5039 0.0039 0.0000
vt 0.5039 0.2539 0.0000
vt 0.2539 0.0039 0.0000
vt 0.2539 0.2539 0.0000
vt 0.0039 0.0039 0.0000
vt 0.0039 0.2539 0.0000
vt 1.0039 1.0039 0.0000
vt 1.0039 0.7539 0.0000
vt 0.5039 0.7539 0.0000
vt 0.5039 1.0039 0.0000
vt 0.2539 0.5039 0.0000
vt 0.0039 0.5039 0.0000
vt 1.0039 0.2539 0.0000
vt 1.0039 0.0039 0.0000
vt 0.0000 0.0000 0.0000
vt 0.2539 0.7539 0.0000
vt 0.5039 0.5039 0.0000
vt 1.0039 0.5039 0.0000
vt 0.7539 0.5039 0.0000
vt 0.7539 0.7539 0.0000
# 22 texture coords

g rocket
usemtl missile
f 1/1/1 2/2/1 3/3/1 
f 3/3/1 4/4/2 1/1/1 
f 4/4/2 5/3/3 6/5/3 
f 6/5/3 1/6/3 4/4/2 
f 5/6/4 7/5/5 8/7/5 
f 8/7/5 6/8/5 5/6/4 
f 9/6/6 8/5/6 7/7/6 
f 7/7/6 10/8/6 9/6/6 
f 2/4/7 9/3/7 10/5/7 
f 10/5/7 3/6/7 2/4/7 
f 3/9/8 11/10/8 12/11/8 
f 12/11/8 4/12/8 3/9/8 
f 13/13/9 5/6/4 4/8/9 
f 4/8/9 12/14/9 13/13/9 
f 13/15/10 14/16/10 7/2/10 
f 7/2/10 5/1/10 13/15/10 
f 10/15/11 7/16/11 14/2/11 
f 14/2/11 15/1/11 10/15/11 
f 10/13/12 15/6/13 11/8/12 
f 11/8/12 3/14/12 10/13/12 
f 12/1/14 11/2/14 16/3/14 
f 16/3/14 17/4/15 12/1/14 
f 17/4/15 18/3/16 13/5/16 
f 13/5/16 12/6/16 17/4/15 
f 18/6/17 19/5/18 14/7/18 
f 14/7/18 13/8/18 18/6/17 
f 15/6/13 14/5/19 19/7/19 
f 19/7/19 20/8/19 15/6/13 
f 11/4/20 15/3/20 20/5/20 
f 20/5/20 16/6/20 11/4/20 
f 8/17/21 9/17/21 2/17/21 
f 6/17/21 8/17/21 2/17/21 
f 1/17/21 6/17/21 2/17/21 
f 21/18/22 22/11/22 23/19/22 
f 23/19/22 24/13/22 21/18/22 
f 22/20/21 21/15/21 25/1/21 
f 25/1/21 26/21/21 22/20/21 
f 21/22/23 24/21/23 27/19/24 
f 27/19/24 25/11/25 21/22/23 
f 24/19/26 23/4/26 28/6/26 
f 28/6/26 27/13/26 24/19/26 
f 25/11/25 27/19/24 28/13/27 
f 28/13/27 26/18/27 25/11/25 
f 29/11/28 30/22/29 31/21/29 
f 31/21/29 32/19/30 29/11/28 
f 30/21/21 29/1/21 33/4/21 
f 33/4/21 34/19/21 30/21/21 
f 29/11/28 32/19/30 35/13/31 
f 35/13/31 33/18/32 29/11/28 
f 32/19/30 31/4/26 36/6/26 
f 36/6/26 35/13/31 32/19/30 
f 33/20/33 35/15/33 36/1/33 
f 36/1/33 34/21/33 33/20/33 
f 37/18/27 38/11/27 39/19/27 
f 39/19/27 40/13/27 37/18/27 
f 38/21/21 37/1/21 41/4/21 
f 41/4/21 42/19/21 38/21/21 
f 41/20/34 37/15/34 40/1/34 
f 40/1/34 43/21/34 41/20/34 
f 40/19/26 39/4/26 44/6/26 
f 44/6/26 43/13/26 40/19/26 
f 41/18/22 43/11/22 44/19/22 
f 44/19/22 42/13/22 41/18/22 
f 45/21/33 46/20/33 47/15/33 
f 47/15/33 48/1/33 45/21/33 
f 46/21/21 45/1/21 49/4/21 
f 49/4/21 50/19/21 46/21/21 
f 48/11/35 51/19/35 49/13/35 
f 49/13/35 45/18/35 48/11/35 
f 48/19/26 47/4/26 52/6/26 
f 52/6/26 51/13/26 48/19/26 
f 49/22/29 51/21/29 52/19/29 
f 52/19/29 50/11/29 49/22/29 
f 53/17/26 54/17/26 55/17/26 
f 56/17/26 53/17/26 55/17/26 
f 57/17/26 56/17/26 55/17/26 
f 16/9/8 56/10/8 57/11/8 
f 57/11/8 17/12/8 16/9/8 
f 20/13/12 53/6/12 56/8/12 
f 56/8/12 16/14/12 20/13/12 
f 20/15/11 19/16/11 54/2/11 
f 54/2/11 53/1/11 20/15/11 
f 55/15/10 54/16/10 19/2/10 
f 19/2/10 18/1/10 55/15/10 
f 55/13/9 18/6/17 17/8/9 
f 17/8/9 57/14/9 55/13/9 
# 86 faces

